<svg xmlns="http://www.w3.org/2000/svg" viewBox="0 0 100 100"><defs><style>.cls-1{fill:#f2e5c4}.cls-2{fill:#8c73fd}.cls-3{fill:#ae98ff}</style></defs><title>japanese-2</title><g id="japanese_-_2" data-name="japanese - 2"><circle cx="50" cy="50" r="48" class="cls-1"/><path d="M24.79,35h14l3.33-4,4.59,3.75c1,.83.83,1.39-.42,1.67H25.63Zm2.09,15V48.56H37.5L40,45l4.58,3.54h5.21a85.65,85.65,0,0,0,2.29-9.17H46.25l-.83-1.46H52.5Q53.33,34,54.17,30H45.83l-.41-1.46h20l3.13-4.17,4.79,4c.83.83.69,1.39-.42,1.67H60l-1.88,7.91H62.5L64.17,35,69,39q1.67,1.46-.42,2.29l-.63.2-.2,7.09h.41l2.5-4.38L75,48.35c.83.83.69,1.39-.42,1.67Zm0-20V28.56H37.29L39.79,25,44,28.56c.83.7.69,1.18-.42,1.46Zm0,13.54V42.1H37.29l2.29-3.33,4,3.33c.84.7.76,1.18-.21,1.46Zm5,25.2v2.5A1.33,1.33,0,0,1,31,72.51a9.78,9.78,0,0,1-2.7.42c-1,.14-1.46-.14-1.46-.83V53.76l5.62,2.71h5.21l2.08-3.33,4.59,4.17c.83.83.69,1.66-.42,2.5l-.63.41v9.17a1.51,1.51,0,0,1-.83,1.46,12.33,12.33,0,0,1-3.12.62c-.7,0-1.05-.28-1.05-.83V68.76Zm0-10.83V67.3h6.45V57.93ZM53.75,69.39v1a1.88,1.88,0,0,1-.63,1.67,19.84,19.84,0,0,1-3.54.83c-.83,0-1.25-.35-1.25-1V54l6,2.5h11l1.67-3.12,5,4.16c.83.7.69,1.46-.42,2.3l-.62.41v10a1.88,1.88,0,0,1-.63,1.67,7.33,7.33,0,0,1-4,.83,1,1,0,0,1-.84-1V69.39Zm0-11.46v10H65.62v-10Zm4-18.54c-.7,3.06-1.53,6.11-2.5,9.17H62.5l.21-9.17Z" class="cls-2"/><path d="M56.05,82.3h0V78.45h.46V83H56l-2.63-3.89h0V83h-.46V78.45h.57Z" class="cls-3"/><path d="M58.5,80.4h.2c.58,0,1-.23,1-.83a.85.85,0,0,0-.89-.85.94.94,0,0,0-.86.53l-.39-.2a1.39,1.39,0,0,1,1.28-.72,1.21,1.21,0,0,1,1.32,1.22,1,1,0,0,1-.79,1v0a1.1,1.1,0,0,1,.92,1.12,1.36,1.36,0,0,1-1.46,1.37,1.47,1.47,0,0,1-1.43-.93l.43-.16a1,1,0,0,0,1,.69,1,1,0,0,0,1-1c0-.68-.59-.92-1.18-.92h-.2Z" class="cls-3"/><path d="M62.58,81.61H61.15v-.37h1.43Z" class="cls-3"/><path d="M66.7,82.3h0V78.45h.46V83H66.6L64,79.08h0V83h-.47V78.45h.58Z" class="cls-3"/><path d="M71,83h-2.9v-.48L70,80.62a1.53,1.53,0,0,0,.55-1,.86.86,0,0,0-.9-.87.94.94,0,0,0-.93.81l-.46-.09a1.38,1.38,0,0,1,1.39-1.11A1.24,1.24,0,0,1,71,79.58,2,2,0,0,1,70.24,81l-1.63,1.61H71Z" class="cls-3"/></g></svg>