<svg xmlns="http://www.w3.org/2000/svg" viewBox="0 0 100 100"><defs><style>.cls-1{fill:#f2d455;}.cls-2{fill:#fff;}.cls-3{fill:#da251c;}.cls-4{fill:none;stroke:#fff;stroke-miterlimit:10;stroke-width:0.75px;}.cls-5{opacity:0.23;}</style></defs><title>weather</title><g id="weather"><circle class="cls-1" cx="50" cy="50" r="48"/><path class="cls-2" d="M55.68,63.21V25.07a5.92,5.92,0,1,0-11.83,0V63.21a11.4,11.4,0,1,0,11.83,0Z"/><circle class="cls-3" cx="49.76" cy="72.94" r="7.29"/><rect class="cls-3" x="46.93" y="37.97" width="5.67" height="29.45"/><line class="cls-4" x1="58.64" y1="35.38" x2="66.05" y2="35.38"/><line class="cls-4" x1="58.64" y1="38.15" x2="63.35" y2="38.15"/><line class="cls-4" x1="58.64" y1="40.92" x2="66.05" y2="40.92"/><line class="cls-4" x1="58.64" y1="43.69" x2="63.35" y2="43.69"/><line class="cls-4" x1="58.64" y1="46.46" x2="66.05" y2="46.46"/><line class="cls-4" x1="58.64" y1="49.22" x2="63.35" y2="49.22"/><line class="cls-4" x1="58.64" y1="51.99" x2="66.05" y2="51.99"/><line class="cls-4" x1="58.64" y1="54.76" x2="63.35" y2="54.76"/><line class="cls-4" x1="58.64" y1="57.53" x2="66.05" y2="57.53"/><line class="cls-4" x1="58.64" y1="60.3" x2="63.35" y2="60.3"/><path class="cls-5" d="M55.68,63.21V25.07a5.93,5.93,0,0,0-5.92-5.92V84.33a11.39,11.39,0,0,0,5.92-21.12Z"/></g></svg>