<svg xmlns="http://www.w3.org/2000/svg" viewBox="0 0 100 100"><defs><style>.cls-1{fill:#f2d455}.cls-2{fill:#fff}.cls-3{fill:#da251c}.cls-4{fill:none;stroke:#fff;stroke-miterlimit:10;stroke-width:.75px}.cls-5{opacity:.23}</style></defs><title>weather</title><g id="weather"><circle cx="50" cy="50" r="48" class="cls-1"/><path d="M55.68,63.21V25.07a5.92,5.92,0,1,0-11.83,0V63.21a11.4,11.4,0,1,0,11.83,0Z" class="cls-2"/><circle cx="49.76" cy="72.94" r="7.29" class="cls-3"/><rect width="5.67" height="29.45" x="46.93" y="37.97" class="cls-3"/><line x1="58.64" x2="66.05" y1="35.38" y2="35.38" class="cls-4"/><line x1="58.64" x2="63.35" y1="38.15" y2="38.15" class="cls-4"/><line x1="58.64" x2="66.05" y1="40.92" y2="40.92" class="cls-4"/><line x1="58.64" x2="63.35" y1="43.69" y2="43.69" class="cls-4"/><line x1="58.64" x2="66.05" y1="46.46" y2="46.46" class="cls-4"/><line x1="58.64" x2="63.35" y1="49.22" y2="49.22" class="cls-4"/><line x1="58.64" x2="66.05" y1="51.99" y2="51.99" class="cls-4"/><line x1="58.64" x2="63.35" y1="54.76" y2="54.76" class="cls-4"/><line x1="58.64" x2="66.05" y1="57.53" y2="57.53" class="cls-4"/><line x1="58.64" x2="63.35" y1="60.3" y2="60.3" class="cls-4"/><path d="M55.68,63.21V25.07a5.93,5.93,0,0,0-5.92-5.92V84.33a11.39,11.39,0,0,0,5.92-21.12Z" class="cls-5"/></g></svg>