<svg xmlns="http://www.w3.org/2000/svg" viewBox="0 0 100 100"><defs><style>.cls-1{fill:#d8d8d8;}.cls-2{fill:#9e9e9e;}.cls-3{fill:#eeb7b7;}.cls-4{fill:#fff;}.cls-5{fill:#b1dfe2;}</style></defs><title>isaac</title><g id="isaac"><circle class="cls-1" cx="50" cy="50" r="48"/><polygon class="cls-2" points="62.5 74.84 62.5 70.7 33.73 70.7 33.73 74.84 29.62 74.84 29.62 78.98 37.84 78.98 37.84 83.09 62.5 83.09 62.5 78.98 66.61 78.98 66.61 74.84 62.5 74.84"/><rect class="cls-3" x="41.95" y="62.48" width="16.44" height="12.33"/><rect class="cls-3" x="33.73" y="58.37" width="4.11" height="4.11"/><rect class="cls-3" x="62.5" y="58.37" width="4.11" height="4.11"/><polygon class="cls-3" points="70.72 33.7 66.61 33.7 66.61 29.59 62.5 29.59 62.5 25.48 37.84 25.48 37.84 29.59 33.73 29.59 33.73 33.7 29.62 33.7 29.62 50.08 33.73 50.08 33.73 54.26 37.84 54.26 37.84 58.37 62.5 58.37 62.5 54.26 66.61 54.26 66.61 50.15 70.72 50.15 70.72 33.7"/><rect x="33.73" y="25.49" width="4.11" height="4.11"/><rect x="29.62" y="29.6" width="4.11" height="4.11"/><polygon points="37.84 37.81 37.84 41.93 33.73 41.93 33.73 46.04 37.84 46.04 41.95 46.04 41.95 41.93 41.95 37.81 37.84 37.81"/><polygon points="62.5 37.81 62.5 41.93 58.39 41.93 58.39 46.04 62.5 46.04 66.61 46.04 66.61 41.93 66.61 37.81 62.5 37.81"/><polygon points="25.51 33.7 25.51 37.81 25.51 41.93 25.51 46.04 25.51 50.15 29.62 50.15 29.62 46.04 29.62 41.93 29.62 37.81 29.62 33.7 25.51 33.7"/><rect x="50.17" y="70.7" width="4.11" height="4.11"/><rect x="46.06" y="70.7" width="4.11" height="4.11"/><rect x="66.61" y="50.15" width="4.11" height="4.11"/><rect x="29.62" y="50.15" width="4.11" height="4.11"/><rect x="33.73" y="54.26" width="4.11" height="4.11"/><rect x="62.5" y="54.26" width="4.11" height="4.11"/><polygon points="58.39 21.38 54.28 21.38 50.17 21.38 46.06 21.38 41.95 21.38 37.84 21.38 37.84 25.48 41.95 25.48 46.06 25.48 50.17 25.48 54.28 25.48 58.39 25.48 62.5 25.48 62.5 21.38 58.39 21.38"/><rect class="cls-4" x="33.73" y="37.82" width="4.11" height="4.11"/><rect class="cls-4" x="58.39" y="37.82" width="4.11" height="4.11"/><polygon class="cls-5" points="37.84 46.04 33.73 46.04 33.73 50.15 33.73 54.26 37.84 54.26 37.84 50.15 41.95 50.15 41.95 46.04 37.84 46.04"/><polygon class="cls-5" points="62.5 46.04 58.39 46.04 58.39 50.15 62.5 50.15 62.5 54.26 66.61 54.26 66.61 50.15 66.61 46.04 62.5 46.04"/><polygon points="54.28 46.04 50.17 46.04 46.06 46.04 41.95 46.04 41.95 50.15 41.95 54.26 46.06 54.26 50.17 54.26 54.28 54.26 58.39 54.26 58.39 50.15 58.39 46.04 54.28 46.04"/><polygon points="66.61 58.43 66.61 62.54 62.5 62.54 62.5 58.43 58.39 58.43 54.28 58.43 50.17 58.43 46.06 58.43 41.95 58.43 37.84 58.43 37.84 62.54 33.73 62.54 33.73 58.43 29.62 58.43 29.62 62.54 29.62 66.65 33.73 66.65 37.84 66.65 37.84 70.76 37.84 74.87 37.84 78.98 41.95 78.98 46.06 78.98 46.06 74.87 41.95 74.87 41.95 70.76 41.95 66.65 41.95 62.54 46.06 62.54 50.17 62.54 54.28 62.54 58.39 62.54 58.39 66.65 58.39 70.7 58.39 70.76 58.39 74.81 58.39 74.87 54.28 74.87 54.28 78.98 58.39 78.98 58.39 78.98 62.5 78.98 62.5 74.81 62.5 70.76 62.5 70.7 62.5 66.65 66.61 66.65 70.72 66.65 70.72 62.54 70.72 58.43 66.61 58.43"/><rect x="62.5" y="25.49" width="4.11" height="4.11"/><rect x="66.61" y="29.6" width="4.11" height="4.11"/><polygon points="70.72 33.7 70.72 37.81 70.72 41.93 70.72 46.04 70.72 50.15 74.83 50.15 74.83 46.04 74.83 41.93 74.83 37.81 74.83 33.7 70.72 33.7"/></g></svg>