<svg xmlns="http://www.w3.org/2000/svg" viewBox="0 0 492.91 48.32"><defs><style>.cls-1{fill:#ddd}</style></defs><title>title</title><g id="图层_2" data-name="图层 2"><g id="mtn"><path d="M26.53,37.91H19.78L19.4,24c0-.68,0-1.62,0-2.81,0-1.56,0-3.08.14-4.57s.2-3,.32-4.66L16.17,32.38H10.36L6.37,12c.35,3.59.52,6.83.52,9.7l0,2.48L6.61,37.91H0L1.83,5.44H9.75l3.61,21,3.42-21H24.7Z" class="cls-1"/><path d="M53.1,32.76a2.28,2.28,0,0,0,1.26,1l-1.54,4.88a10.77,10.77,0,0,1-3.75-1,5.61,5.61,0,0,1-2.35-2.28,8.93,8.93,0,0,1-3.56,2.51,12.17,12.17,0,0,1-4.59.87,8.57,8.57,0,0,1-6.14-2.18,7.43,7.43,0,0,1-2.3-5.65,7.2,7.2,0,0,1,3.19-6.25c2.12-1.49,5.11-2.23,9-2.23H45.6v-.89q0-3.84-4.92-3.84a17.46,17.46,0,0,0-3.17.35,24.71,24.71,0,0,0-3.67,1l-1.69-4.92a30.08,30.08,0,0,1,5-1.38,25.38,25.38,0,0,1,4.71-.5q10.88,0,10.87,8.81v9.75A4.2,4.2,0,0,0,53.1,32.76Zm-9.45-.07a4.85,4.85,0,0,0,2-2V26.62H43.77q-6,0-6,3.75a2.89,2.89,0,0,0,.87,2.25,3.52,3.52,0,0,0,2.46.79A5.2,5.2,0,0,0,43.65,32.69Z" class="cls-1"/><path d="M84.17,13l-1.36,10.4H78.12V18.89a6,6,0,0,0-3.65,2.2A13.35,13.35,0,0,0,72,25.82v7.12H76.9v5H61.3v-5h3.28V18H61.3V13h9l1.31,5.57A11.56,11.56,0,0,1,75,13.85,8.1,8.1,0,0,1,80,12.28,11,11,0,0,1,84.17,13Z" class="cls-1"/><path d="M103.36,32.83a1.89,1.89,0,0,0,1.1-1.76,2,2,0,0,0-.45-1.36,4.44,4.44,0,0,0-1.66-1c-.81-.32-2.08-.72-3.8-1.19a13.77,13.77,0,0,1-5.71-2.74,6.14,6.14,0,0,1-2-4.85,6.7,6.7,0,0,1,2.83-5.58q2.83-2.16,8-2.16a16.62,16.62,0,0,1,10.07,3.05l-3,4.36a13,13,0,0,0-6.89-2.11,5.88,5.88,0,0,0-2.69.47,1.54,1.54,0,0,0-.87,1.45,1.5,1.5,0,0,0,.44,1.1,5.1,5.1,0,0,0,1.69.92c.83.31,2.07.7,3.73,1.17a23.48,23.48,0,0,1,4.38,1.64,6.69,6.69,0,0,1,2.65,2.39,7.18,7.18,0,0,1,.93,3.84,6.73,6.73,0,0,1-1.59,4.5,9.57,9.57,0,0,1-4.26,2.81,17.66,17.66,0,0,1-5.91.94,19.11,19.11,0,0,1-6.28-1A13.89,13.89,0,0,1,89.32,35L93,30.79a11.67,11.67,0,0,0,7.31,2.62A6.53,6.53,0,0,0,103.36,32.83Z" class="cls-1"/><path d="M126.74,29.81a5.14,5.14,0,0,1,7.36,0,5,5,0,0,1,1.52,3.65,5.1,5.1,0,0,1-1.52,3.7,5.14,5.14,0,0,1-7.36,0,5.1,5.1,0,0,1-1.52-3.7A5,5,0,0,1,126.74,29.81Z" class="cls-1"/><path d="M170.07,37.91h-8.16l-2.15-16.73-2.25,16.73h-8L145.79,13h6.8l1.64,20.24,2.57-17.1h6.28l2.3,17.1L167.07,13h6.56Z" class="cls-1"/><path d="M190.64,33.32A11.68,11.68,0,0,0,197,31.26l3,4a13.57,13.57,0,0,1-4.35,2.51,16.58,16.58,0,0,1-5.58.91A14.15,14.15,0,0,1,183,37.05a10.84,10.84,0,0,1-4.38-4.64,15.46,15.46,0,0,1-1.47-6.92,15.55,15.55,0,0,1,1.43-6.77,11.26,11.26,0,0,1,4.17-4.78,11.83,11.83,0,0,1,6.53-1.76,12.07,12.07,0,0,1,6.19,1.53,10.12,10.12,0,0,1,4.05,4.4A15.21,15.21,0,0,1,200.9,25a20.7,20.7,0,0,1-.14,2.67H184.64Q185.35,33.32,190.64,33.32ZM186,18.63a8,8,0,0,0-1.45,4.52h9.14c-.07-4-1.55-6-4.46-6A4,4,0,0,0,186,18.63Z" class="cls-1"/><path d="M217.75,13.07a7.44,7.44,0,0,1,3.54-.89,7.71,7.71,0,0,1,6.91,3.47q2.27,3.47,2.27,9.75a18.88,18.88,0,0,1-1.17,6.89A10.57,10.57,0,0,1,225.88,37a8.66,8.66,0,0,1-5.39,1.71,7.66,7.66,0,0,1-3.47-.8,7.42,7.42,0,0,1-2.67-2.25l-.28,2.25h-6.56V3.14l7.4-.8V15.56A8.54,8.54,0,0,1,217.75,13.07Zm5.08,12.42c0-2.9-.32-4.93-1-6.09a3.17,3.17,0,0,0-2.91-1.73q-2.3,0-4,2.9v10.5a4.27,4.27,0,0,0,3.66,2.25Q222.83,33.32,222.83,25.49Z" class="cls-1"/><path d="M249.8,32.83a1.88,1.88,0,0,0,1.1-1.76,2,2,0,0,0-.44-1.36,4.53,4.53,0,0,0-1.66-1c-.82-.32-2.08-.72-3.8-1.19a13.81,13.81,0,0,1-5.72-2.74,6.18,6.18,0,0,1-2-4.85,6.71,6.71,0,0,1,2.84-5.58q2.83-2.16,7.94-2.16a16.63,16.63,0,0,1,10.08,3.05l-3,4.36a13,13,0,0,0-6.89-2.11,6,6,0,0,0-2.7.47,1.54,1.54,0,0,0-.86,1.45,1.46,1.46,0,0,0,.44,1.1,5.1,5.1,0,0,0,1.69.92q1.24.46,3.72,1.17A23.61,23.61,0,0,1,255,24.23a6.59,6.59,0,0,1,2.64,2.39,7.09,7.09,0,0,1,.94,3.84A6.73,6.73,0,0,1,257,35a9.66,9.66,0,0,1-4.27,2.81,17.6,17.6,0,0,1-5.9.94,19.07,19.07,0,0,1-6.28-1A13.79,13.79,0,0,1,235.77,35l3.7-4.17a11.67,11.67,0,0,0,7.31,2.62A6.49,6.49,0,0,0,249.8,32.83Z" class="cls-1"/><path d="M281.27,13V32.85h6.38v5.06H266.84V32.85h7V18.09h-6.8V13ZM280,1.19a4,4,0,0,1,1.22,3,4,4,0,0,1-1.22,3,4.79,4.79,0,0,1-6.3,0,4,4,0,0,1-1.25-3,4,4,0,0,1,1.25-3A4.38,4.38,0,0,1,276.82,0,4.32,4.32,0,0,1,280,1.19Z" class="cls-1"/><path d="M309.62,38.71q-4.77,0-7.19-2.44A9.28,9.28,0,0,1,300,29.43V18.14h-5.2V13H300V7.64l7.4-.89V13h8l-.75,5.11h-7.27V29.43a3.44,3.44,0,0,0,.85,2.62,3.8,3.8,0,0,0,2.71.8,8.79,8.79,0,0,0,4.36-1.12l2.44,4.73A14.79,14.79,0,0,1,309.62,38.71Z" class="cls-1"/><path d="M337.09,33.32a11.71,11.71,0,0,0,6.37-2.06l3,4a13.62,13.62,0,0,1-4.36,2.51,16.47,16.47,0,0,1-5.57.91,14.15,14.15,0,0,1-7.08-1.66A10.72,10.72,0,0,1,325,32.41a15.46,15.46,0,0,1-1.48-6.92A15.69,15.69,0,0,1,325,18.72a11.26,11.26,0,0,1,4.17-4.78,11.88,11.88,0,0,1,6.54-1.76,12.09,12.09,0,0,1,6.19,1.53,10.12,10.12,0,0,1,4.05,4.4A15.34,15.34,0,0,1,347.35,25a22.68,22.68,0,0,1-.14,2.67H331.09C331.56,31.43,333.55,33.32,337.09,33.32Zm-4.64-14.69A8,8,0,0,0,331,23.15h9.14q-.09-6-4.45-6A4,4,0,0,0,332.45,18.63Z" class="cls-1"/><path d="M361.06,29.81a5.13,5.13,0,0,1,7.35,0,5,5,0,0,1,1.53,3.65,5.07,5.07,0,0,1-1.53,3.7,5.13,5.13,0,0,1-7.35,0,5.07,5.07,0,0,1-1.53-3.7A5,5,0,0,1,361.06,29.81Z" class="cls-1"/><path d="M404.57,32.76a2.28,2.28,0,0,0,1.26,1l-1.54,4.88a10.77,10.77,0,0,1-3.75-1,5.53,5.53,0,0,1-2.34-2.28,9,9,0,0,1-3.57,2.51,12.09,12.09,0,0,1-4.59.87,8.57,8.57,0,0,1-6.14-2.18,7.42,7.42,0,0,1-2.29-5.65,7.19,7.19,0,0,1,3.18-6.25q3.19-2.23,8.95-2.23h3.33v-.89q0-3.84-4.92-3.84A17.37,17.37,0,0,0,389,18a24.52,24.52,0,0,0-3.68,1l-1.69-4.92a30.08,30.08,0,0,1,5-1.38,25.55,25.55,0,0,1,4.71-.5q10.88,0,10.87,8.81v9.75A4.2,4.2,0,0,0,404.57,32.76Zm-9.44-.07a4.89,4.89,0,0,0,1.94-2V26.62h-1.83q-6,0-6,3.75a2.89,2.89,0,0,0,.87,2.25,3.52,3.52,0,0,0,2.46.79A5.21,5.21,0,0,0,395.13,32.69Z" class="cls-1"/><path d="M433.2,15.63c1.47,2.3,2.2,5.55,2.2,9.77a19.41,19.41,0,0,1-1.14,6.87A10.78,10.78,0,0,1,431,37a8,8,0,0,1-5.11,1.71,7.54,7.54,0,0,1-5.9-2.58V47.52l-7.4.8V13h6.56l.32,2.76a9.74,9.74,0,0,1,3.26-2.72,8.16,8.16,0,0,1,3.63-.89C429.44,12.18,431.73,13.33,433.2,15.63Zm-13.26,4.94v10.5a5.92,5.92,0,0,0,1.66,1.66,3.72,3.72,0,0,0,2,.54,3.36,3.36,0,0,0,3.11-1.85,12.55,12.55,0,0,0,1.06-5.93c0-2.93-.32-5-.94-6.11A3,3,0,0,0,424,17.67C422.45,17.67,421.1,18.64,419.94,20.57Z" class="cls-1"/><path d="M462.49,15.63c1.47,2.3,2.2,5.55,2.2,9.77a19.41,19.41,0,0,1-1.14,6.87A10.78,10.78,0,0,1,460.24,37a8,8,0,0,1-5.11,1.71,7.54,7.54,0,0,1-5.9-2.58V47.52l-7.41.8V13h6.56l.33,2.76A9.74,9.74,0,0,1,452,13.07a8.16,8.16,0,0,1,3.63-.89C458.73,12.18,461,13.33,462.49,15.63Zm-13.26,4.94v10.5a5.8,5.8,0,0,0,1.66,1.66,3.69,3.69,0,0,0,2,.54A3.37,3.37,0,0,0,456,31.42q1-1.84,1.05-5.93,0-4.39-.93-6.11a3,3,0,0,0-2.81-1.71Q451,17.67,449.23,20.57Z" class="cls-1"/><path d="M484.12,32.83a1.89,1.89,0,0,0,1.1-1.76,2.06,2.06,0,0,0-.44-1.36,4.59,4.59,0,0,0-1.67-1c-.81-.32-2.08-.72-3.8-1.19a13.83,13.83,0,0,1-5.71-2.74,6.18,6.18,0,0,1-2-4.85,6.7,6.7,0,0,1,2.83-5.58q2.84-2.16,8-2.16a16.62,16.62,0,0,1,10.07,3.05l-3,4.36a13,13,0,0,0-6.89-2.11A5.91,5.91,0,0,0,480,18a1.54,1.54,0,0,0-.87,1.45,1.47,1.47,0,0,0,.45,1.1,4.92,4.92,0,0,0,1.68.92c.83.31,2.07.7,3.73,1.17a23.48,23.48,0,0,1,4.38,1.64A6.69,6.69,0,0,1,492,26.62a7.18,7.18,0,0,1,.94,3.84,6.74,6.74,0,0,1-1.6,4.5,9.57,9.57,0,0,1-4.26,2.81,17.61,17.61,0,0,1-5.91.94,19.11,19.11,0,0,1-6.28-1A13.89,13.89,0,0,1,470.08,35l3.71-4.17a11.65,11.65,0,0,0,7.31,2.62A6.51,6.51,0,0,0,484.12,32.83Z" class="cls-1"/></g></g></svg>